<?xml version="1.0" standalone="no"?>
<svg version="1.0" xmlns="http://www.w3.org/2000/svg"
 width="258.000000pt" height="63.000000pt" viewBox="0 0 258.000000 63.000000"
 preserveAspectRatio="xMidYMid meet">

<g transform="translate(0.000000,63.000000) scale(0.100000,-0.100000)"
fill="#fff" stroke="none">
<path d="M780 458 c0 -33 -1 -33 -38 -30 -28 3 -42 -1 -57 -18 -26 -29 -24
-89 5 -112 25 -20 65 -24 75 -8 5 8 11 7 21 -1 21 -17 25 4 22 106 -2 60 -7
90 -15 93 -9 2 -13 -8 -13 -30z m-10 -73 c29 -35 -21 -93 -55 -65 -15 13 -20
61 -8 73 12 12 50 7 63 -8z"/>
<path d="M1404 477 c-9 -24 1 -187 11 -190 6 -1 11 39 13 101 2 67 -1 102 -8
102 -6 0 -13 -6 -16 -13z"/>
<path d="M1506 424 c-35 -36 -36 -95 -1 -129 13 -14 31 -25 40 -25 22 0 19 33
-5 48 -22 14 -27 61 -8 80 18 18 56 14 75 -8 19 -21 53 -27 53 -9 0 6 -13 24
-29 40 -39 38 -88 40 -125 3z"/>
<path d="M162 356 c3 -81 21 -96 26 -21 4 54 16 77 40 73 8 -2 17 2 19 9 3 9
-10 12 -42 11 l-46 -1 3 -71z"/>
<path d="M324 422 c-16 -11 -34 -48 -34 -72 0 -11 11 -32 24 -45 21 -21 32
-24 73 -21 l48 4 0 68 0 68 -50 3 c-27 2 -55 0 -61 -5z m76 -61 c0 -56 -63
-67 -76 -14 -5 20 -2 31 15 45 31 24 61 9 61 -31z"/>
<path d="M496 408 c-23 -33 -20 -81 7 -106 25 -23 61 -29 72 -12 5 8 11 8 19
1 20 -17 26 -2 26 69 l0 67 -54 2 c-46 1 -57 -3 -70 -21z m90 -35 c9 -33 -7
-58 -36 -58 -29 0 -45 25 -36 58 5 22 12 27 36 27 24 0 31 -5 36 -27z"/>
<path d="M866 408 c-23 -33 -20 -75 9 -103 26 -27 54 -31 86 -15 31 17 23 32
-14 25 -26 -5 -39 -2 -52 12 -18 17 -17 18 38 21 63 3 72 17 41 60 -11 16 -25
22 -54 22 -29 0 -43 -6 -54 -22z m84 -24 c0 -9 -11 -14 -30 -14 -33 0 -43 26
-12 32 24 6 42 -2 42 -18z"/>
<path d="M1040 418 c0 -7 14 -42 30 -77 26 -55 33 -62 45 -50 18 19 65 126 57
133 -12 13 -22 4 -43 -41 l-21 -48 -20 48 c-19 43 -48 64 -48 35z"/>
<path d="M1236 414 c-36 -36 -31 -93 10 -120 30 -20 94 -11 94 12 0 12 -7 14
-30 9 -19 -4 -36 -2 -45 5 -26 22 -16 30 35 30 46 0 50 2 50 23 0 49 -78 77
-114 41z m79 -35 c-8 -12 -65 -12 -65 1 0 5 8 13 17 19 20 11 57 -4 48 -20z"/>
<path d="M1710 327 c0 -74 3 -98 13 -95 6 3 13 17 15 32 3 24 6 26 36 20 28
-5 37 -1 55 21 25 33 27 72 5 103 -13 19 -23 22 -70 20 l-54 -2 0 -99z m106
46 c12 -45 -28 -80 -61 -53 -15 13 -20 61 -8 73 3 4 19 7 34 7 23 0 30 -6 35
-27z"/>
<path d="M1911 404 c-12 -15 -21 -38 -21 -51 0 -28 41 -73 67 -73 35 0 63 12
63 27 0 11 -7 13 -30 8 -19 -4 -36 -2 -45 5 -26 22 -16 30 35 30 46 0 50 2 50
23 0 57 -82 78 -119 31z m84 -25 c-8 -12 -65 -12 -65 1 0 5 8 13 17 19 20 11
57 -4 48 -20z"/>
<path d="M2082 356 c3 -81 21 -96 26 -21 4 57 17 78 43 70 13 -4 19 -1 19 9 0
12 -11 15 -45 14 l-46 -1 3 -71z"/>
<path d="M2217 424 c-12 -13 4 -24 34 -24 l31 0 -37 -51 c-44 -59 -39 -72 30
-67 59 4 73 25 20 30 l-37 3 37 48 c20 26 33 52 30 57 -7 11 -98 14 -108 4z"/>
<path d="M1603 324 c-45 -49 -14 -76 32 -29 14 13 25 31 25 40 0 22 -32 16
-57 -11z"/>
</g>
</svg>
